<svg xmlns="http://www.w3.org/2000/svg" xmlns:xlink="http://www.w3.org/1999/xlink" width="192" height="85.239" viewBox="0 0 192 85.239">
  <defs>
    <linearGradient id="linear-gradient" x1="0.001" y1="0.499" x2="1.001" y2="0.499" gradientUnits="objectBoundingBox">
      <stop offset="0" stop-color="#ea8a22"/>
      <stop offset="1" stop-color="#f2be18"/>
    </linearGradient>
    <linearGradient id="linear-gradient-2" x1="0.001" y1="0.5" x2="1.002" y2="0.5" gradientUnits="objectBoundingBox">
      <stop offset="0" stop-color="#232864"/>
      <stop offset="0.217" stop-color="#223c7b"/>
      <stop offset="0.461" stop-color="#214c8d"/>
      <stop offset="0.717" stop-color="#205598"/>
      <stop offset="1" stop-color="#20589c"/>
    </linearGradient>
    <linearGradient id="linear-gradient-3" x1="-0.001" y1="0.5" x2="0.999" y2="0.5" gradientUnits="objectBoundingBox">
      <stop offset="0" stop-color="#20589c"/>
      <stop offset="0.292" stop-color="#205599"/>
      <stop offset="0.542" stop-color="#214c8e"/>
      <stop offset="0.777" stop-color="#223d7c"/>
      <stop offset="1" stop-color="#232864"/>
    </linearGradient>
    <linearGradient id="linear-gradient-4" x1="0.001" y1="0.5" x2="0.994" y2="0.5" gradientUnits="objectBoundingBox">
      <stop offset="0" stop-color="#f2be18"/>
      <stop offset="1" stop-color="#ea8a22"/>
    </linearGradient>
  </defs>
  <g id="eCubes_Logo2_EN" transform="translate(356.2 -39.1)">
    <g id="Group_28672" data-name="Group 28672" transform="translate(-356.2 39.1)">
      <path id="Path_5835" data-name="Path 5835" d="M-356,70.326-320.765,39.1V60.761L-343.9,81.79Z" transform="translate(356.141 -39.1)" fill-rule="evenodd" fill="url(#linear-gradient)"/>
      <path id="Path_5836" data-name="Path 5836" d="M-343.2,67.353-308.6,98.3V76.636L-330.822,56.1Z" transform="translate(352.343 -44.144)" fill-rule="evenodd" fill="url(#linear-gradient-2)"/>
      <path id="Path_5837" data-name="Path 5837" d="M-308.465,106.791-343.7,138.017V116.356L-308.465,85.2Z" transform="translate(352.491 -52.778)" fill-rule="evenodd" fill="url(#linear-gradient-3)"/>
      <path id="Path_5838" data-name="Path 5838" d="M-322.02,114.815-356.2,83.8v21.661l21.8,20.606Z" transform="translate(356.2 -52.363)" fill-rule="evenodd" fill="url(#linear-gradient-4)"/>
    </g>
    <g id="Group_28675" data-name="Group 28675" transform="translate(-303.524 59.073)">
      <g id="Group_28673" data-name="Group 28673" transform="translate(41.213 36.626)">
        <path id="Path_5839" data-name="Path 5839" d="M-221.364,126.311H-222.7V119.7h1.336Z" transform="translate(222.7 -119.615)" fill="#ec9522"/>
        <path id="Path_5840" data-name="Path 5840" d="M-215.262,122.456a1.566,1.566,0,0,1,.492,1.336V127.1h-1.336v-2.954a1.209,1.209,0,0,0-.07-.563c-.141-.281-.352-.352-.7-.352a1.013,1.013,0,0,0-.914.563,2.172,2.172,0,0,0-.141.774v2.6H-219.2v-4.853h1.266v.7a2.007,2.007,0,0,1,.492-.563,1.488,1.488,0,0,1,.985-.281,1.177,1.177,0,0,1,1.2.281Z" transform="translate(221.662 -120.332)" fill="#ec9522"/>
        <path id="Path_5841" data-name="Path 5841" d="M-211.9,122.651v-.914h.7V120.4h1.266v1.336h.774v.914h-.774v2.6c0,.211,0,.352.07.352.07.07.211.07.492.07h.281v.985h-.633a1.983,1.983,0,0,1-1.266-.281.933.933,0,0,1-.211-.7v-3.024Z" transform="translate(219.496 -119.822)" fill="#ec9522"/>
        <path id="Path_5842" data-name="Path 5842" d="M-203.886,122.281a2.068,2.068,0,0,1,.844.7,2.466,2.466,0,0,1,.422.985c0,.211.07.563.07.985h-3.516a1.27,1.27,0,0,0,.492,1.055,1.188,1.188,0,0,0,.7.211,1.188,1.188,0,0,0,.7-.211,1.534,1.534,0,0,0,.281-.352h1.266a1.688,1.688,0,0,1-.492.914,2.288,2.288,0,0,1-1.829.7,2.52,2.52,0,0,1-1.688-.633,2.437,2.437,0,0,1-.774-1.969,2.606,2.606,0,0,1,.7-1.969,2.333,2.333,0,0,1,1.758-.7,1.985,1.985,0,0,1,1.055.281Zm-1.9,1.055a1.323,1.323,0,0,0-.352.774h2.18a1.008,1.008,0,0,0-.352-.774,1.28,1.28,0,0,0-.774-.281,1.25,1.25,0,0,0-.7.281Z" transform="translate(218.163 -120.296)" fill="#ec9522"/>
        <path id="Path_5843" data-name="Path 5843" d="M-197.358,122.161a1.822,1.822,0,0,1,.774.7v-.7h1.266V126.8a2.419,2.419,0,0,1-.352,1.407,2.3,2.3,0,0,1-2.11.844,3.352,3.352,0,0,1-1.547-.352,1.2,1.2,0,0,1-.633-1.125h1.407c.07.141.07.281.141.352.141.141.352.141.7.141.492,0,.774-.141.914-.492a2.912,2.912,0,0,0,.141-.985v-.281a3.057,3.057,0,0,1-.422.492,1.488,1.488,0,0,1-.985.281,1.817,1.817,0,0,1-1.477-.633,2.768,2.768,0,0,1-.563-1.758,3.135,3.135,0,0,1,.563-1.829,1.779,1.779,0,0,1,1.547-.774.993.993,0,0,1,.633.07Zm.422,3.516a1.46,1.46,0,0,0,.281-1.055,1.46,1.46,0,0,0-.281-1.055,1.008,1.008,0,0,0-.774-.352.908.908,0,0,0-.914.633,2.624,2.624,0,0,0-.141.844,2.532,2.532,0,0,0,.141.774.908.908,0,0,0,.914.633A2.729,2.729,0,0,0-196.936,125.677Z" transform="translate(215.995 -120.317)" fill="#ec9522"/>
        <path id="Path_5844" data-name="Path 5844" d="M-189.027,122.092h.141v1.336h-.352a1.11,1.11,0,0,0-1.055.492,2.624,2.624,0,0,0-.141.844v2.321H-191.7v-4.853h1.2v.844a1.741,1.741,0,0,1,.492-.633,1.034,1.034,0,0,1,.985-.352Z" transform="translate(213.502 -120.319)" fill="#ec9522"/>
        <path id="Path_5845" data-name="Path 5845" d="M-184.884,124a.819.819,0,0,0,.492-.141.359.359,0,0,0,.281-.352.422.422,0,0,0-.211-.422,1.407,1.407,0,0,0-.633-.141.859.859,0,0,0-.633.211l-.211.422h-1.2a1.727,1.727,0,0,1,.352-1.055,2.139,2.139,0,0,1,1.758-.633,2.973,2.973,0,0,1,1.407.352,1.232,1.232,0,0,1,.633,1.2v2.813a.527.527,0,0,0,.07.352c.07.07.07.141.211.141v.211h-1.407a.422.422,0,0,1-.07-.281.422.422,0,0,0-.07-.281,2.19,2.19,0,0,1-.633.492,1.947,1.947,0,0,1-.914.211,1.946,1.946,0,0,1-1.125-.352,1.431,1.431,0,0,1-.422-1.055,1.215,1.215,0,0,1,.7-1.266,2.4,2.4,0,0,1,1.125-.281Zm.774.633c-.07.07-.141.07-.281.141a3.043,3.043,0,0,1-.352.07l-.281.07c-.281.07-.492.141-.563.141a.571.571,0,0,0-.281.563.639.639,0,0,0,.211.492,1,1,0,0,0,.422.141,1.418,1.418,0,0,0,.774-.211,1.018,1.018,0,0,0,.352-.914v-.492Z" transform="translate(212.171 -120.262)" fill="#ec9522"/>
        <path id="Path_5846" data-name="Path 5846" d="M-180.1,122.651v-.914h.7V120.4h1.266v1.336h.774v.914h-.774v2.6c0,.211,0,.352.07.352.07.07.211.07.492.07h.281v.985h-.633a1.983,1.983,0,0,1-1.266-.281.933.933,0,0,1-.211-.7v-3.024Z" transform="translate(210.06 -119.822)" fill="#ec9522"/>
        <path id="Path_5847" data-name="Path 5847" d="M-172.086,122.281a2.068,2.068,0,0,1,.844.7,2.466,2.466,0,0,1,.422.985c0,.211.07.563.07.985h-3.516a1.27,1.27,0,0,0,.492,1.055,1.188,1.188,0,0,0,.7.211,1.188,1.188,0,0,0,.7-.211,1.534,1.534,0,0,0,.281-.352h1.266a1.688,1.688,0,0,1-.492.914,2.288,2.288,0,0,1-1.829.7,2.52,2.52,0,0,1-1.688-.633,2.437,2.437,0,0,1-.774-1.969,2.606,2.606,0,0,1,.7-1.969,2.333,2.333,0,0,1,1.758-.7A1.828,1.828,0,0,1-172.086,122.281Zm-1.9,1.055a1.323,1.323,0,0,0-.352.774h2.18a1.008,1.008,0,0,0-.352-.774,1.28,1.28,0,0,0-.774-.281,1.25,1.25,0,0,0-.7.281Z" transform="translate(208.728 -120.296)" fill="#ec9522"/>
        <path id="Path_5848" data-name="Path 5848" d="M-165.419,121.558a1.44,1.44,0,0,1,.563.563V119.8h1.266v6.541h-1.266v-.7a2.686,2.686,0,0,1-.633.633,1.5,1.5,0,0,1-.844.211,1.641,1.641,0,0,1-1.407-.7,2.522,2.522,0,0,1-.563-1.758,3.274,3.274,0,0,1,.563-1.969,1.81,1.81,0,0,1,1.547-.7,1.418,1.418,0,0,1,.774.211Zm.352,3.516a1.7,1.7,0,0,0,.281-1.055,1.613,1.613,0,0,0-.422-1.266,1.134,1.134,0,0,0-.633-.211,1,1,0,0,0-.844.422,2.33,2.33,0,0,0-.281,1.055,1.572,1.572,0,0,0,.281,1.055,1.072,1.072,0,0,0,.774.422,1.226,1.226,0,0,0,.844-.422Z" transform="translate(206.561 -119.644)" fill="#ec9522"/>
        <path id="Path_5849" data-name="Path 5849" d="M-154.964,126.311H-156.3V119.7h1.336Z" transform="translate(202.998 -119.615)" fill="#ec9522"/>
        <path id="Path_5850" data-name="Path 5850" d="M-147.955,119.8V121h-1.969v5.415h-1.407V121H-153.3v-1.2Z" transform="translate(202.108 -119.644)" fill="#ec9522"/>
        <path id="Path_5851" data-name="Path 5851" d="M-140.223,124.235a2.11,2.11,0,0,0,.281.7,1.448,1.448,0,0,0,1.2.422,1.882,1.882,0,0,0,.774-.141.741.741,0,0,0,.563-.774.531.531,0,0,0-.281-.492,2.337,2.337,0,0,0-.914-.281l-.7-.141a5.857,5.857,0,0,1-1.477-.492,1.592,1.592,0,0,1-.633-1.407,2.024,2.024,0,0,1,.633-1.477,2.564,2.564,0,0,1,1.9-.563,3.134,3.134,0,0,1,1.829.563,1.907,1.907,0,0,1,.774,1.618h-1.336a.848.848,0,0,0-.563-.844,1.523,1.523,0,0,0-.844-.141,1.5,1.5,0,0,0-.844.211.739.739,0,0,0-.352.633.717.717,0,0,0,.352.563c.141.07.422.141.844.281l1.125.281a2.816,2.816,0,0,1,1.125.492,1.5,1.5,0,0,1,.563,1.336,1.683,1.683,0,0,1-.7,1.477,2.86,2.86,0,0,1-1.969.563,3.506,3.506,0,0,1-2.04-.563,2,2,0,0,1-.774-1.618h1.477Z" transform="translate(198.667 -119.579)" fill="#ec9522"/>
        <path id="Path_5852" data-name="Path 5852" d="M-128.57,126.429a2.382,2.382,0,0,1-1.9.774,2.382,2.382,0,0,1-1.9-.774A2.754,2.754,0,0,1-133,124.6a2.755,2.755,0,0,1,.633-1.829,2.382,2.382,0,0,1,1.9-.774,2.382,2.382,0,0,1,1.9.774,2.754,2.754,0,0,1,.633,1.829A2.755,2.755,0,0,1-128.57,126.429Zm-.985-.7a1.784,1.784,0,0,0,.281-1.125,1.784,1.784,0,0,0-.281-1.125,1,1,0,0,0-.844-.422,1,1,0,0,0-.844.422,1.784,1.784,0,0,0-.281,1.125,1.784,1.784,0,0,0,.281,1.125,1,1,0,0,0,.844.422,1,1,0,0,0,.844-.422Z" transform="translate(196.086 -120.295)" fill="#ec9522"/>
        <path id="Path_5853" data-name="Path 5853" d="M-123.134,126.311H-124.4V119.7h1.266Z" transform="translate(193.533 -119.615)" fill="#ec9522"/>
        <path id="Path_5854" data-name="Path 5854" d="M-119.636,122.17v2.954a1.561,1.561,0,0,0,.07.633c.141.281.352.352.7.352a.954.954,0,0,0,.914-.492,2.171,2.171,0,0,0,.141-.774V122.17h1.266v4.853h-1.266v-.7a.245.245,0,0,0-.07.141c-.07.07-.07.141-.141.211a1.764,1.764,0,0,1-.563.352,1.947,1.947,0,0,1-.633.07,1.58,1.58,0,0,1-1.477-.774,2.938,2.938,0,0,1-.211-1.266V122.1h1.266Z" transform="translate(192.497 -120.327)" fill="#ec9522"/>
        <path id="Path_5855" data-name="Path 5855" d="M-113.6,122.651v-.914h.7V120.4h1.266v1.336h.774v.914h-.774v2.6c0,.211,0,.352.07.352.07.07.211.07.492.07h.281v.985h-.633a1.983,1.983,0,0,1-1.266-.281.933.933,0,0,1-.211-.7v-3.024Z" transform="translate(190.329 -119.822)" fill="#ec9522"/>
        <path id="Path_5856" data-name="Path 5856" d="M-107.264,120.9h-1.266v-1.2h1.266Zm-1.336.563h1.266v4.853H-108.6Z" transform="translate(188.845 -119.615)" fill="#ec9522"/>
        <path id="Path_5857" data-name="Path 5857" d="M-101.07,126.429a2.382,2.382,0,0,1-1.9.774,2.382,2.382,0,0,1-1.9-.774,2.754,2.754,0,0,1-.633-1.829,2.754,2.754,0,0,1,.633-1.829,2.382,2.382,0,0,1,1.9-.774,2.382,2.382,0,0,1,1.9.774,2.754,2.754,0,0,1,.633,1.829A2.755,2.755,0,0,1-101.07,126.429Zm-1.055-.7a1.784,1.784,0,0,0,.281-1.125,1.784,1.784,0,0,0-.281-1.125,1,1,0,0,0-.844-.422,1,1,0,0,0-.844.422,1.784,1.784,0,0,0-.281,1.125,1.784,1.784,0,0,0,.281,1.125,1,1,0,0,0,.844.422.921.921,0,0,0,.844-.422Z" transform="translate(187.926 -120.295)" fill="#ec9522"/>
        <path id="Path_5858" data-name="Path 5858" d="M-93.132,122.459a1.565,1.565,0,0,1,.492,1.336V127.1h-1.336v-2.954a1.209,1.209,0,0,0-.07-.563c-.141-.281-.352-.352-.7-.352a1.013,1.013,0,0,0-.914.563,2.171,2.171,0,0,0-.141.774v2.6H-97v-4.853h1.266v.7a2.007,2.007,0,0,1,.492-.563,1.488,1.488,0,0,1,.985-.281A1.094,1.094,0,0,1-93.132,122.459Z" transform="translate(185.404 -120.334)" fill="#ec9522"/>
        <path id="Path_5859" data-name="Path 5859" d="M-88.294,125.473a.819.819,0,0,0,.141.492,1.266,1.266,0,0,0,.914.281,1.68,1.68,0,0,0,.633-.141.387.387,0,0,0,.211-.352.387.387,0,0,0-.211-.352,6.061,6.061,0,0,0-1.336-.352,3.211,3.211,0,0,1-1.2-.492,1.165,1.165,0,0,1-.352-.844,1.468,1.468,0,0,1,.563-1.125,1.981,1.981,0,0,1,1.477-.492,2.858,2.858,0,0,1,1.477.352,1.407,1.407,0,0,1,.633,1.266h-1.266a1,1,0,0,0-.141-.422.938.938,0,0,0-.7-.281.909.909,0,0,0-.563.141.377.377,0,0,0-.211.281.387.387,0,0,0,.211.352,6.061,6.061,0,0,0,1.336.352,2.118,2.118,0,0,1,1.125.563,1.08,1.08,0,0,1,.352.914,1.61,1.61,0,0,1-.563,1.2,2.311,2.311,0,0,1-1.688.492,2.311,2.311,0,0,1-1.688-.492,1.647,1.647,0,0,1-.563-1.266h1.407Z" transform="translate(183.238 -120.324)" fill="#ec9522"/>
      </g>
      <g id="Group_28674" data-name="Group 28674">
        <path id="Path_5860" data-name="Path 5860" d="M-264.632,94.914l2.954,2.954-1.477,1.477a11.441,11.441,0,0,1-3.446,2.321,10.032,10.032,0,0,1-4.079.774,11.659,11.659,0,0,1-4.079-.774,11.441,11.441,0,0,1-3.446-2.321,10.206,10.206,0,0,1-2.321-3.516,11.582,11.582,0,0,1-.774-4.009,11.582,11.582,0,0,1,.774-4.009,10.206,10.206,0,0,1,2.321-3.516,10.206,10.206,0,0,1,3.516-2.321,11.581,11.581,0,0,1,4.009-.774,11.582,11.582,0,0,1,4.009.774,10.564,10.564,0,0,1,3.516,2.321l1.477,1.477-11.815,11.815a5.9,5.9,0,0,0,3.8.563,6.33,6.33,0,0,0,3.516-1.829Zm-10.549-7.666a6.157,6.157,0,0,0-1.9,4.571,6.569,6.569,0,0,0,.633,2.813l1.758-1.758,2.462-2.462c.844-.844,1.688-1.688,2.532-2.462.774-.774,1.407-1.407,1.9-1.829a6.432,6.432,0,0,0-3.8-.633,6.206,6.206,0,0,0-3.587,1.758Z" transform="translate(281.3 -71.565)" fill="#ec9522"/>
        <path id="Path_5861" data-name="Path 5861" d="M-246.8,72a14.493,14.493,0,0,1,5.134-3.376,15.384,15.384,0,0,1,5.837-1.125,15.384,15.384,0,0,1,5.837,1.125A16.261,16.261,0,0,1-224.856,72l2.11,2.11-4.29,4.36-2.18-2.11a8.781,8.781,0,0,0-3.094-2.04,10.106,10.106,0,0,0-3.516-.7,8.726,8.726,0,0,0-3.516.7,9.861,9.861,0,0,0-3.094,2.04,7.947,7.947,0,0,0-2.04,3.024,8.726,8.726,0,0,0-.7,3.516,8.726,8.726,0,0,0,.7,3.516,8.781,8.781,0,0,0,2.04,3.094,8.973,8.973,0,0,0,6.611,2.743,8.824,8.824,0,0,0,3.587-.7,7.947,7.947,0,0,0,3.024-2.04l2.18-2.11,4.29,4.36-2.11,2.11a14.493,14.493,0,0,1-5.134,3.376,15.384,15.384,0,0,1-5.837,1.125,15.384,15.384,0,0,1-5.837-1.125,16.262,16.262,0,0,1-5.134-3.376,15.965,15.965,0,0,1-3.376-5.064,16.56,16.56,0,0,1-1.125-5.837,15.131,15.131,0,0,1,1.125-5.837A14.826,14.826,0,0,1-246.8,72Z" transform="translate(272.399 -67.5)" fill="#1f5a9d"/>
        <path id="Path_5862" data-name="Path 5862" d="M-186.09,81.1V91.72a10.424,10.424,0,0,1-.844,4.149,10.33,10.33,0,0,1-2.321,3.376,11.127,11.127,0,0,1-3.376,2.321,10.18,10.18,0,0,1-4.149.844,10.424,10.424,0,0,1-4.149-.844,11.127,11.127,0,0,1-3.376-2.321,10.914,10.914,0,0,1-2.251-3.376,10.18,10.18,0,0,1-.844-4.149V81.1h4.22V91.72a6.251,6.251,0,0,0,.492,2.532,5.889,5.889,0,0,0,1.407,2.04,7.025,7.025,0,0,0,2.04,1.407,5.924,5.924,0,0,0,2.462.492,6.251,6.251,0,0,0,2.532-.492,5.889,5.889,0,0,0,2.04-1.407,7.025,7.025,0,0,0,1.407-2.04,6.028,6.028,0,0,0,.492-2.532V81.1Z" transform="translate(259.373 -71.535)" fill="#1f5a9d"/>
        <path id="Path_5863" data-name="Path 5863" d="M-160.561,78.454a12.314,12.314,0,0,1,3.376,2.251,10.915,10.915,0,0,1,2.251,3.376,10.18,10.18,0,0,1,.844,4.149,10.424,10.424,0,0,1-.844,4.149,11.34,11.34,0,0,1-2.251,3.376,11.127,11.127,0,0,1-3.376,2.321,10.18,10.18,0,0,1-4.149.844,10.424,10.424,0,0,1-4.149-.844,10.33,10.33,0,0,1-3.376-2.321,11.127,11.127,0,0,1-2.321-3.376,10.18,10.18,0,0,1-.844-4.149V69.1h4.22v8.51h6.47A10.18,10.18,0,0,1-160.561,78.454ZM-164.71,94.7a5.708,5.708,0,0,0,2.462-.492,5.889,5.889,0,0,0,2.04-1.407,7.025,7.025,0,0,0,1.407-2.04,6.028,6.028,0,0,0,.492-2.532,5.708,5.708,0,0,0-.492-2.462,5.889,5.889,0,0,0-1.407-2.04,7.025,7.025,0,0,0-2.04-1.407,5.924,5.924,0,0,0-2.462-.492h-6.47v6.4a6.251,6.251,0,0,0,.492,2.532,5.889,5.889,0,0,0,1.407,2.04,7.025,7.025,0,0,0,2.04,1.407,8.08,8.08,0,0,0,2.532.492Z" transform="translate(249.879 -67.975)" fill="#1f5a9d"/>
        <path id="Path_5864" data-name="Path 5864" d="M-126.632,94.914l2.954,2.954-1.477,1.477a11.441,11.441,0,0,1-3.446,2.321,10.032,10.032,0,0,1-4.079.774,11.659,11.659,0,0,1-4.079-.774,11.441,11.441,0,0,1-3.446-2.321,10.206,10.206,0,0,1-2.321-3.516,11.582,11.582,0,0,1-.774-4.009,11.582,11.582,0,0,1,.774-4.009,10.205,10.205,0,0,1,2.321-3.516,10.205,10.205,0,0,1,3.516-2.321,11.582,11.582,0,0,1,4.009-.774,11.582,11.582,0,0,1,4.009.774,10.564,10.564,0,0,1,3.516,2.321l1.477,1.477-11.815,11.815a5.9,5.9,0,0,0,3.8.563,6.33,6.33,0,0,0,3.516-1.829Zm-10.549-7.666a6.157,6.157,0,0,0-1.9,4.571,6.569,6.569,0,0,0,.633,2.813l1.758-1.758,2.462-2.462c.844-.844,1.688-1.688,2.532-2.462.774-.774,1.407-1.407,1.9-1.829a6.432,6.432,0,0,0-3.8-.633,6.206,6.206,0,0,0-3.587,1.758Z" transform="translate(240.354 -71.565)" fill="#1f5a9d"/>
        <path id="Path_5865" data-name="Path 5865" d="M-94.271,81.1v4.22h-12.8a2.068,2.068,0,0,0-1.547.633,2.068,2.068,0,0,0-.633,1.547,2.068,2.068,0,0,0,.633,1.547,2.068,2.068,0,0,0,1.547.633h8.51a5.708,5.708,0,0,1,2.462.492,6.836,6.836,0,0,1,2.04,1.336,7.025,7.025,0,0,1,1.407,2.04,5.924,5.924,0,0,1,.492,2.462,5.708,5.708,0,0,1-.492,2.462,5.888,5.888,0,0,1-1.407,2.04,7.025,7.025,0,0,1-2.04,1.407,5.925,5.925,0,0,1-2.462.492h-12.8V98.19h12.8a2.068,2.068,0,0,0,1.547-.633,2.068,2.068,0,0,0,.633-1.547,2.068,2.068,0,0,0-.633-1.547,2.068,2.068,0,0,0-1.547-.633h-8.51a5.708,5.708,0,0,1-2.462-.492,5.889,5.889,0,0,1-2.04-1.407,6.837,6.837,0,0,1-1.336-2.04,5.924,5.924,0,0,1-.492-2.462,5.708,5.708,0,0,1,.492-2.462,6.837,6.837,0,0,1,1.336-2.04,6.837,6.837,0,0,1,2.04-1.336,5.925,5.925,0,0,1,2.462-.492Z" transform="translate(231.483 -71.535)" fill="#1f5a9d"/>
      </g>
    </g>
  </g>
</svg>
